<mxfile host="app.diagrams.net" modified="2024-07-11T12:46:55.231Z" agent="Mozilla/5.0 (Windows NT 10.0; Win64; x64) AppleWebKit/537.36 (KHTML, like Gecko) Chrome/126.0.0.0 Safari/537.36" etag="HI87_0K6U404KBL07110" version="24.6.4" type="github">
  <diagram name="Страница — 1" id="cL5zYSq91LqEgFXlHr-6">
    <mxGraphModel dx="1430" dy="1955" grid="1" gridSize="10" guides="1" tooltips="1" connect="1" arrows="1" fold="1" page="1" pageScale="1" pageWidth="827" pageHeight="1169" math="0" shadow="0">
      <root>
        <mxCell id="0" />
        <mxCell id="1" parent="0" />
        <mxCell id="PWmW-OovI-Y7tzKx8yKO-1" value="Пользователь" style="ellipse;whiteSpace=wrap;html=1;" parent="1" vertex="1">
          <mxGeometry x="120" y="840" width="80" height="40" as="geometry" />
        </mxCell>
        <mxCell id="PWmW-OovI-Y7tzKx8yKO-2" value="" style="endArrow=classic;html=1;rounded=0;entryX=1;entryY=0.5;entryDx=0;entryDy=0;exitX=0;exitY=0.5;exitDx=0;exitDy=0;" parent="1" source="PWmW-OovI-Y7tzKx8yKO-4" target="PWmW-OovI-Y7tzKx8yKO-1" edge="1">
          <mxGeometry relative="1" as="geometry">
            <mxPoint x="180" y="900" as="sourcePoint" />
            <mxPoint x="280" y="900" as="targetPoint" />
          </mxGeometry>
        </mxCell>
        <mxCell id="PWmW-OovI-Y7tzKx8yKO-3" value="i" style="edgeLabel;resizable=0;html=1;;align=center;verticalAlign=middle;" parent="PWmW-OovI-Y7tzKx8yKO-2" connectable="0" vertex="1">
          <mxGeometry relative="1" as="geometry" />
        </mxCell>
        <mxCell id="PWmW-OovI-Y7tzKx8yKO-4" value="t" style="ellipse;whiteSpace=wrap;html=1;align=center;dashed=1;" parent="1" vertex="1">
          <mxGeometry x="240" y="840" width="40" height="40" as="geometry" />
        </mxCell>
        <mxCell id="PWmW-OovI-Y7tzKx8yKO-5" value="P1" style="ellipse;whiteSpace=wrap;html=1;" parent="1" vertex="1">
          <mxGeometry x="360" y="840" width="40" height="40" as="geometry" />
        </mxCell>
        <mxCell id="PWmW-OovI-Y7tzKx8yKO-6" value="Является" style="rounded=0;whiteSpace=wrap;html=1;" parent="1" vertex="1">
          <mxGeometry x="340" y="920" width="80" height="40" as="geometry" />
        </mxCell>
        <mxCell id="PWmW-OovI-Y7tzKx8yKO-7" value="" style="endArrow=classic;html=1;rounded=0;" parent="1" edge="1">
          <mxGeometry width="50" height="50" relative="1" as="geometry">
            <mxPoint x="380" y="880" as="sourcePoint" />
            <mxPoint x="380" y="920" as="targetPoint" />
          </mxGeometry>
        </mxCell>
        <mxCell id="PWmW-OovI-Y7tzKx8yKO-8" value="&lt;font style=&quot;font-size: 8px;&quot;&gt;PRED&lt;/font&gt;" style="text;html=1;align=center;verticalAlign=middle;whiteSpace=wrap;rounded=0;" parent="1" vertex="1">
          <mxGeometry x="364" y="881" width="60" height="30" as="geometry" />
        </mxCell>
        <mxCell id="PWmW-OovI-Y7tzKx8yKO-9" value="Член чата" style="ellipse;whiteSpace=wrap;html=1;" parent="1" vertex="1">
          <mxGeometry x="560" y="840" width="80" height="40" as="geometry" />
        </mxCell>
        <mxCell id="PWmW-OovI-Y7tzKx8yKO-10" value="" style="endArrow=classic;html=1;rounded=0;exitX=1;exitY=0.5;exitDx=0;exitDy=0;entryX=0;entryY=0.5;entryDx=0;entryDy=0;" parent="1" source="PWmW-OovI-Y7tzKx8yKO-12" target="PWmW-OovI-Y7tzKx8yKO-9" edge="1">
          <mxGeometry relative="1" as="geometry">
            <mxPoint x="658.5" y="910" as="sourcePoint" />
            <mxPoint x="590" y="860" as="targetPoint" />
          </mxGeometry>
        </mxCell>
        <mxCell id="PWmW-OovI-Y7tzKx8yKO-11" value="i" style="edgeLabel;resizable=0;html=1;;align=center;verticalAlign=middle;" parent="PWmW-OovI-Y7tzKx8yKO-10" connectable="0" vertex="1">
          <mxGeometry relative="1" as="geometry" />
        </mxCell>
        <mxCell id="PWmW-OovI-Y7tzKx8yKO-12" value="z" style="ellipse;whiteSpace=wrap;html=1;align=center;dashed=1;" parent="1" vertex="1">
          <mxGeometry x="480" y="840" width="40" height="40" as="geometry" />
        </mxCell>
        <mxCell id="PWmW-OovI-Y7tzKx8yKO-13" value="" style="endArrow=classic;html=1;rounded=0;entryX=1;entryY=0.5;entryDx=0;entryDy=0;exitX=0;exitY=0.5;exitDx=0;exitDy=0;" parent="1" source="PWmW-OovI-Y7tzKx8yKO-5" target="PWmW-OovI-Y7tzKx8yKO-4" edge="1">
          <mxGeometry relative="1" as="geometry">
            <mxPoint x="315" y="820" as="sourcePoint" />
            <mxPoint x="315" y="860" as="targetPoint" />
            <Array as="points" />
          </mxGeometry>
        </mxCell>
        <mxCell id="PWmW-OovI-Y7tzKx8yKO-14" value="a1" style="edgeLabel;resizable=0;html=1;;align=center;verticalAlign=middle;" parent="PWmW-OovI-Y7tzKx8yKO-13" connectable="0" vertex="1">
          <mxGeometry relative="1" as="geometry" />
        </mxCell>
        <mxCell id="PWmW-OovI-Y7tzKx8yKO-15" value="" style="endArrow=classic;html=1;rounded=0;entryX=0;entryY=0.5;entryDx=0;entryDy=0;exitX=1;exitY=0.5;exitDx=0;exitDy=0;" parent="1" source="PWmW-OovI-Y7tzKx8yKO-5" target="PWmW-OovI-Y7tzKx8yKO-12" edge="1">
          <mxGeometry relative="1" as="geometry">
            <mxPoint x="400" y="880" as="sourcePoint" />
            <mxPoint x="480" y="880" as="targetPoint" />
          </mxGeometry>
        </mxCell>
        <mxCell id="PWmW-OovI-Y7tzKx8yKO-16" value="a2" style="edgeLabel;resizable=0;html=1;;align=center;verticalAlign=middle;" parent="PWmW-OovI-Y7tzKx8yKO-15" connectable="0" vertex="1">
          <mxGeometry relative="1" as="geometry" />
        </mxCell>
        <mxCell id="PWmW-OovI-Y7tzKx8yKO-17" value="P2" style="ellipse;whiteSpace=wrap;html=1;" parent="1" vertex="1">
          <mxGeometry x="240" y="960" width="40" height="40" as="geometry" />
        </mxCell>
        <mxCell id="PWmW-OovI-Y7tzKx8yKO-18" value="" style="endArrow=classic;html=1;rounded=0;exitX=0;exitY=0.5;exitDx=0;exitDy=0;entryX=1;entryY=0.5;entryDx=0;entryDy=0;" parent="1" source="PWmW-OovI-Y7tzKx8yKO-17" target="PWmW-OovI-Y7tzKx8yKO-20" edge="1">
          <mxGeometry width="50" height="50" relative="1" as="geometry">
            <mxPoint x="196" y="980" as="sourcePoint" />
            <mxPoint x="160" y="980" as="targetPoint" />
          </mxGeometry>
        </mxCell>
        <mxCell id="PWmW-OovI-Y7tzKx8yKO-19" value="&lt;font style=&quot;font-size: 8px;&quot;&gt;PRED&lt;/font&gt;" style="text;html=1;align=center;verticalAlign=middle;whiteSpace=wrap;rounded=0;" parent="1" vertex="1">
          <mxGeometry x="193" y="958" width="60" height="30" as="geometry" />
        </mxCell>
        <mxCell id="PWmW-OovI-Y7tzKx8yKO-20" value="Отправляет" style="rounded=0;whiteSpace=wrap;html=1;" parent="1" vertex="1">
          <mxGeometry x="120" y="960" width="80" height="40" as="geometry" />
        </mxCell>
        <mxCell id="PWmW-OovI-Y7tzKx8yKO-21" value="" style="endArrow=classic;html=1;rounded=0;entryX=0.5;entryY=1;entryDx=0;entryDy=0;exitX=0.5;exitY=0;exitDx=0;exitDy=0;" parent="1" source="PWmW-OovI-Y7tzKx8yKO-17" target="PWmW-OovI-Y7tzKx8yKO-4" edge="1">
          <mxGeometry relative="1" as="geometry">
            <mxPoint x="370" y="960" as="sourcePoint" />
            <mxPoint x="290" y="960" as="targetPoint" />
            <Array as="points" />
          </mxGeometry>
        </mxCell>
        <mxCell id="PWmW-OovI-Y7tzKx8yKO-22" value="a1" style="edgeLabel;resizable=0;html=1;;align=center;verticalAlign=middle;" parent="PWmW-OovI-Y7tzKx8yKO-21" connectable="0" vertex="1">
          <mxGeometry relative="1" as="geometry" />
        </mxCell>
        <mxCell id="PWmW-OovI-Y7tzKx8yKO-23" value="Сообщение" style="ellipse;whiteSpace=wrap;html=1;" parent="1" vertex="1">
          <mxGeometry x="220" y="1160" width="80" height="40" as="geometry" />
        </mxCell>
        <mxCell id="PWmW-OovI-Y7tzKx8yKO-24" value="" style="endArrow=classic;html=1;rounded=0;entryX=0.5;entryY=0;entryDx=0;entryDy=0;exitX=0.5;exitY=1;exitDx=0;exitDy=0;" parent="1" source="PWmW-OovI-Y7tzKx8yKO-26" target="PWmW-OovI-Y7tzKx8yKO-23" edge="1">
          <mxGeometry relative="1" as="geometry">
            <mxPoint x="180" y="1140" as="sourcePoint" />
            <mxPoint x="160" y="1100" as="targetPoint" />
          </mxGeometry>
        </mxCell>
        <mxCell id="PWmW-OovI-Y7tzKx8yKO-25" value="i" style="edgeLabel;resizable=0;html=1;;align=center;verticalAlign=middle;" parent="PWmW-OovI-Y7tzKx8yKO-24" connectable="0" vertex="1">
          <mxGeometry relative="1" as="geometry" />
        </mxCell>
        <mxCell id="PWmW-OovI-Y7tzKx8yKO-26" value="w" style="ellipse;whiteSpace=wrap;html=1;align=center;dashed=1;" parent="1" vertex="1">
          <mxGeometry x="240" y="1080" width="40" height="40" as="geometry" />
        </mxCell>
        <mxCell id="PWmW-OovI-Y7tzKx8yKO-27" value="" style="endArrow=classic;html=1;rounded=0;entryX=0.5;entryY=0;entryDx=0;entryDy=0;exitX=0.5;exitY=1;exitDx=0;exitDy=0;" parent="1" source="PWmW-OovI-Y7tzKx8yKO-17" target="PWmW-OovI-Y7tzKx8yKO-26" edge="1">
          <mxGeometry relative="1" as="geometry">
            <mxPoint x="330" y="1060" as="sourcePoint" />
            <mxPoint x="410" y="1060" as="targetPoint" />
          </mxGeometry>
        </mxCell>
        <mxCell id="PWmW-OovI-Y7tzKx8yKO-28" value="a2" style="edgeLabel;resizable=0;html=1;;align=center;verticalAlign=middle;" parent="PWmW-OovI-Y7tzKx8yKO-27" connectable="0" vertex="1">
          <mxGeometry relative="1" as="geometry" />
        </mxCell>
        <mxCell id="PWmW-OovI-Y7tzKx8yKO-29" value="Администратор" style="ellipse;whiteSpace=wrap;html=1;" parent="1" vertex="1">
          <mxGeometry x="440" y="720" width="80" height="40" as="geometry" />
        </mxCell>
        <mxCell id="PWmW-OovI-Y7tzKx8yKO-30" value="" style="endArrow=classic;html=1;rounded=0;exitX=1;exitY=0.5;exitDx=0;exitDy=0;" parent="1" source="PWmW-OovI-Y7tzKx8yKO-32" edge="1">
          <mxGeometry relative="1" as="geometry">
            <mxPoint x="700" y="790" as="sourcePoint" />
            <mxPoint x="440" y="740" as="targetPoint" />
          </mxGeometry>
        </mxCell>
        <mxCell id="PWmW-OovI-Y7tzKx8yKO-31" value="i" style="edgeLabel;resizable=0;html=1;;align=center;verticalAlign=middle;" parent="PWmW-OovI-Y7tzKx8yKO-30" connectable="0" vertex="1">
          <mxGeometry relative="1" as="geometry" />
        </mxCell>
        <mxCell id="PWmW-OovI-Y7tzKx8yKO-32" value="v" style="ellipse;whiteSpace=wrap;html=1;align=center;dashed=1;" parent="1" vertex="1">
          <mxGeometry x="359" y="720" width="40" height="40" as="geometry" />
        </mxCell>
        <mxCell id="PWmW-OovI-Y7tzKx8yKO-33" value="" style="endArrow=classic;html=1;rounded=0;entryX=0.5;entryY=1;entryDx=0;entryDy=0;" parent="1" target="PWmW-OovI-Y7tzKx8yKO-32" edge="1">
          <mxGeometry relative="1" as="geometry">
            <mxPoint x="379" y="840" as="sourcePoint" />
            <mxPoint x="290" y="820" as="targetPoint" />
            <Array as="points" />
          </mxGeometry>
        </mxCell>
        <mxCell id="PWmW-OovI-Y7tzKx8yKO-34" value="a1" style="edgeLabel;resizable=0;html=1;;align=center;verticalAlign=middle;" parent="PWmW-OovI-Y7tzKx8yKO-33" connectable="0" vertex="1">
          <mxGeometry relative="1" as="geometry" />
        </mxCell>
        <mxCell id="PWmW-OovI-Y7tzKx8yKO-35" value="СостоитВ" style="rounded=0;whiteSpace=wrap;html=1;" parent="1" vertex="1">
          <mxGeometry x="120" y="720" width="80" height="40" as="geometry" />
        </mxCell>
        <mxCell id="PWmW-OovI-Y7tzKx8yKO-36" value="P3" style="ellipse;whiteSpace=wrap;html=1;" parent="1" vertex="1">
          <mxGeometry x="240" y="720" width="40" height="40" as="geometry" />
        </mxCell>
        <mxCell id="PWmW-OovI-Y7tzKx8yKO-37" value="" style="endArrow=classic;html=1;rounded=0;exitX=0;exitY=0.5;exitDx=0;exitDy=0;entryX=1;entryY=0.5;entryDx=0;entryDy=0;" parent="1" source="PWmW-OovI-Y7tzKx8yKO-36" target="PWmW-OovI-Y7tzKx8yKO-35" edge="1">
          <mxGeometry width="50" height="50" relative="1" as="geometry">
            <mxPoint x="150" y="810" as="sourcePoint" />
            <mxPoint x="150" y="770" as="targetPoint" />
          </mxGeometry>
        </mxCell>
        <mxCell id="PWmW-OovI-Y7tzKx8yKO-38" value="&lt;font style=&quot;font-size: 8px;&quot;&gt;PRED&lt;/font&gt;" style="text;html=1;align=center;verticalAlign=middle;whiteSpace=wrap;rounded=0;" parent="1" vertex="1">
          <mxGeometry x="193" y="718" width="60" height="30" as="geometry" />
        </mxCell>
        <mxCell id="PWmW-OovI-Y7tzKx8yKO-39" value="Чат" style="ellipse;whiteSpace=wrap;html=1;" parent="1" vertex="1">
          <mxGeometry x="320" y="600" width="80" height="40" as="geometry" />
        </mxCell>
        <mxCell id="PWmW-OovI-Y7tzKx8yKO-40" value="" style="endArrow=classic;html=1;rounded=0;exitX=1;exitY=0.5;exitDx=0;exitDy=0;entryX=0;entryY=0.5;entryDx=0;entryDy=0;" parent="1" source="PWmW-OovI-Y7tzKx8yKO-42" target="PWmW-OovI-Y7tzKx8yKO-39" edge="1">
          <mxGeometry relative="1" as="geometry">
            <mxPoint x="340" y="560" as="sourcePoint" />
            <mxPoint x="200" y="620" as="targetPoint" />
          </mxGeometry>
        </mxCell>
        <mxCell id="PWmW-OovI-Y7tzKx8yKO-41" value="i" style="edgeLabel;resizable=0;html=1;;align=center;verticalAlign=middle;" parent="PWmW-OovI-Y7tzKx8yKO-40" connectable="0" vertex="1">
          <mxGeometry relative="1" as="geometry" />
        </mxCell>
        <mxCell id="PWmW-OovI-Y7tzKx8yKO-42" value="x" style="ellipse;whiteSpace=wrap;html=1;align=center;dashed=1;" parent="1" vertex="1">
          <mxGeometry x="240" y="600" width="40" height="40" as="geometry" />
        </mxCell>
        <mxCell id="PWmW-OovI-Y7tzKx8yKO-43" value="" style="endArrow=classic;html=1;rounded=0;entryX=0.5;entryY=0;entryDx=0;entryDy=0;exitX=0.5;exitY=1;exitDx=0;exitDy=0;" parent="1" source="PWmW-OovI-Y7tzKx8yKO-36" target="PWmW-OovI-Y7tzKx8yKO-4" edge="1">
          <mxGeometry relative="1" as="geometry">
            <mxPoint x="320" y="790" as="sourcePoint" />
            <mxPoint x="320" y="710" as="targetPoint" />
            <Array as="points" />
          </mxGeometry>
        </mxCell>
        <mxCell id="PWmW-OovI-Y7tzKx8yKO-44" value="a1" style="edgeLabel;resizable=0;html=1;;align=center;verticalAlign=middle;" parent="PWmW-OovI-Y7tzKx8yKO-43" connectable="0" vertex="1">
          <mxGeometry relative="1" as="geometry" />
        </mxCell>
        <mxCell id="PWmW-OovI-Y7tzKx8yKO-45" value="" style="endArrow=classic;html=1;rounded=0;entryX=0.5;entryY=1;entryDx=0;entryDy=0;exitX=0.5;exitY=0;exitDx=0;exitDy=0;" parent="1" source="PWmW-OovI-Y7tzKx8yKO-36" target="PWmW-OovI-Y7tzKx8yKO-42" edge="1">
          <mxGeometry relative="1" as="geometry">
            <mxPoint x="320" y="668" as="sourcePoint" />
            <mxPoint x="320" y="748" as="targetPoint" />
          </mxGeometry>
        </mxCell>
        <mxCell id="PWmW-OovI-Y7tzKx8yKO-46" value="a2" style="edgeLabel;resizable=0;html=1;;align=center;verticalAlign=middle;" parent="PWmW-OovI-Y7tzKx8yKO-45" connectable="0" vertex="1">
          <mxGeometry relative="1" as="geometry" />
        </mxCell>
        <mxCell id="PWmW-OovI-Y7tzKx8yKO-47" value="" style="endArrow=classic;html=1;rounded=0;entryX=0;entryY=0.5;entryDx=0;entryDy=0;exitX=1;exitY=0.5;exitDx=0;exitDy=0;" parent="1" source="PWmW-OovI-Y7tzKx8yKO-36" target="PWmW-OovI-Y7tzKx8yKO-32" edge="1">
          <mxGeometry relative="1" as="geometry">
            <mxPoint x="270" y="770" as="sourcePoint" />
            <mxPoint x="270" y="850" as="targetPoint" />
            <Array as="points" />
          </mxGeometry>
        </mxCell>
        <mxCell id="PWmW-OovI-Y7tzKx8yKO-48" value="a1" style="edgeLabel;resizable=0;html=1;;align=center;verticalAlign=middle;" parent="PWmW-OovI-Y7tzKx8yKO-47" connectable="0" vertex="1">
          <mxGeometry relative="1" as="geometry" />
        </mxCell>
        <mxCell id="PWmW-OovI-Y7tzKx8yKO-49" value="Содержит" style="rounded=0;whiteSpace=wrap;html=1;" parent="1" vertex="1">
          <mxGeometry x="340" y="1000" width="80" height="40" as="geometry" />
        </mxCell>
        <mxCell id="PWmW-OovI-Y7tzKx8yKO-50" value="P4" style="ellipse;whiteSpace=wrap;html=1;" parent="1" vertex="1">
          <mxGeometry x="360" y="1080" width="40" height="40" as="geometry" />
        </mxCell>
        <mxCell id="PWmW-OovI-Y7tzKx8yKO-51" value="Файл" style="ellipse;whiteSpace=wrap;html=1;" parent="1" vertex="1">
          <mxGeometry x="560" y="1080" width="80" height="40" as="geometry" />
        </mxCell>
        <mxCell id="PWmW-OovI-Y7tzKx8yKO-52" value="" style="endArrow=classic;html=1;rounded=0;exitX=1;exitY=0.5;exitDx=0;exitDy=0;" parent="1" source="PWmW-OovI-Y7tzKx8yKO-54" edge="1">
          <mxGeometry relative="1" as="geometry">
            <mxPoint x="680" y="1150" as="sourcePoint" />
            <mxPoint x="560" y="1100" as="targetPoint" />
          </mxGeometry>
        </mxCell>
        <mxCell id="PWmW-OovI-Y7tzKx8yKO-53" value="i" style="edgeLabel;resizable=0;html=1;;align=center;verticalAlign=middle;" parent="PWmW-OovI-Y7tzKx8yKO-52" connectable="0" vertex="1">
          <mxGeometry relative="1" as="geometry" />
        </mxCell>
        <mxCell id="PWmW-OovI-Y7tzKx8yKO-54" value="y" style="ellipse;whiteSpace=wrap;html=1;align=center;dashed=1;" parent="1" vertex="1">
          <mxGeometry x="480" y="1080" width="40" height="40" as="geometry" />
        </mxCell>
        <mxCell id="PWmW-OovI-Y7tzKx8yKO-55" value="" style="endArrow=classic;html=1;rounded=0;entryX=1;entryY=0.5;entryDx=0;entryDy=0;exitX=0;exitY=0.5;exitDx=0;exitDy=0;" parent="1" source="PWmW-OovI-Y7tzKx8yKO-50" target="PWmW-OovI-Y7tzKx8yKO-26" edge="1">
          <mxGeometry relative="1" as="geometry">
            <mxPoint x="370" y="1080" as="sourcePoint" />
            <mxPoint x="290" y="1080" as="targetPoint" />
            <Array as="points" />
          </mxGeometry>
        </mxCell>
        <mxCell id="PWmW-OovI-Y7tzKx8yKO-56" value="a1" style="edgeLabel;resizable=0;html=1;;align=center;verticalAlign=middle;" parent="PWmW-OovI-Y7tzKx8yKO-55" connectable="0" vertex="1">
          <mxGeometry relative="1" as="geometry" />
        </mxCell>
        <mxCell id="PWmW-OovI-Y7tzKx8yKO-57" value="" style="endArrow=classic;html=1;rounded=0;entryX=0;entryY=0.5;entryDx=0;entryDy=0;exitX=1;exitY=0.5;exitDx=0;exitDy=0;" parent="1" source="PWmW-OovI-Y7tzKx8yKO-50" target="PWmW-OovI-Y7tzKx8yKO-54" edge="1">
          <mxGeometry relative="1" as="geometry">
            <mxPoint x="460" y="1070" as="sourcePoint" />
            <mxPoint x="540" y="1070" as="targetPoint" />
          </mxGeometry>
        </mxCell>
        <mxCell id="PWmW-OovI-Y7tzKx8yKO-58" value="a2" style="edgeLabel;resizable=0;html=1;;align=center;verticalAlign=middle;" parent="PWmW-OovI-Y7tzKx8yKO-57" connectable="0" vertex="1">
          <mxGeometry relative="1" as="geometry" />
        </mxCell>
        <mxCell id="PWmW-OovI-Y7tzKx8yKO-59" value="" style="endArrow=classic;html=1;rounded=0;exitX=0.5;exitY=0;exitDx=0;exitDy=0;entryX=0.5;entryY=1;entryDx=0;entryDy=0;" parent="1" source="PWmW-OovI-Y7tzKx8yKO-50" target="PWmW-OovI-Y7tzKx8yKO-49" edge="1">
          <mxGeometry width="50" height="50" relative="1" as="geometry">
            <mxPoint x="456" y="1040" as="sourcePoint" />
            <mxPoint x="456" y="1080" as="targetPoint" />
          </mxGeometry>
        </mxCell>
        <mxCell id="PWmW-OovI-Y7tzKx8yKO-60" value="&lt;font style=&quot;font-size: 8px;&quot;&gt;PRED&lt;/font&gt;" style="text;html=1;align=center;verticalAlign=middle;whiteSpace=wrap;rounded=0;" parent="1" vertex="1">
          <mxGeometry x="364" y="1050" width="60" height="30" as="geometry" />
        </mxCell>
        <mxCell id="PWmW-OovI-Y7tzKx8yKO-61" value="P5" style="ellipse;whiteSpace=wrap;html=1;" parent="1" vertex="1">
          <mxGeometry x="40" y="1080" width="40" height="40" as="geometry" />
        </mxCell>
        <mxCell id="PWmW-OovI-Y7tzKx8yKO-62" value="" style="endArrow=classic;html=1;rounded=0;entryX=0;entryY=0.5;entryDx=0;entryDy=0;exitX=1;exitY=0.5;exitDx=0;exitDy=0;" parent="1" source="PWmW-OovI-Y7tzKx8yKO-61" target="PWmW-OovI-Y7tzKx8yKO-26" edge="1">
          <mxGeometry relative="1" as="geometry">
            <mxPoint x="100" y="1099.71" as="sourcePoint" />
            <mxPoint x="179" y="1099.71" as="targetPoint" />
            <Array as="points" />
          </mxGeometry>
        </mxCell>
        <mxCell id="PWmW-OovI-Y7tzKx8yKO-63" value="a1" style="edgeLabel;resizable=0;html=1;;align=center;verticalAlign=middle;" parent="PWmW-OovI-Y7tzKx8yKO-62" connectable="0" vertex="1">
          <mxGeometry relative="1" as="geometry" />
        </mxCell>
        <mxCell id="PWmW-OovI-Y7tzKx8yKO-64" value="" style="endArrow=classic;html=1;rounded=0;exitX=0.5;exitY=0;exitDx=0;exitDy=0;entryX=0;entryY=0.5;entryDx=0;entryDy=0;" parent="1" source="PWmW-OovI-Y7tzKx8yKO-61" target="PWmW-OovI-Y7tzKx8yKO-42" edge="1">
          <mxGeometry relative="1" as="geometry">
            <mxPoint x="59.71000000000001" y="1038" as="sourcePoint" />
            <mxPoint x="60" y="630" as="targetPoint" />
            <Array as="points">
              <mxPoint x="60" y="620" />
            </Array>
          </mxGeometry>
        </mxCell>
        <mxCell id="PWmW-OovI-Y7tzKx8yKO-65" value="a2" style="edgeLabel;resizable=0;html=1;;align=center;verticalAlign=middle;" parent="PWmW-OovI-Y7tzKx8yKO-64" connectable="0" vertex="1">
          <mxGeometry relative="1" as="geometry" />
        </mxCell>
        <mxCell id="PWmW-OovI-Y7tzKx8yKO-67" value="P6" style="ellipse;whiteSpace=wrap;html=1;" parent="1" vertex="1">
          <mxGeometry x="678.5" y="960" width="40" height="40" as="geometry" />
        </mxCell>
        <mxCell id="PWmW-OovI-Y7tzKx8yKO-68" value="" style="endArrow=classic;html=1;rounded=0;entryX=1;entryY=0.5;entryDx=0;entryDy=0;exitX=0;exitY=0.5;exitDx=0;exitDy=0;" parent="1" source="PWmW-OovI-Y7tzKx8yKO-67" target="PWmW-OovI-Y7tzKx8yKO-17" edge="1">
          <mxGeometry relative="1" as="geometry">
            <mxPoint x="424" y="979.71" as="sourcePoint" />
            <mxPoint x="344" y="979.71" as="targetPoint" />
            <Array as="points" />
          </mxGeometry>
        </mxCell>
        <mxCell id="PWmW-OovI-Y7tzKx8yKO-69" value="a1" style="edgeLabel;resizable=0;html=1;;align=center;verticalAlign=middle;" parent="PWmW-OovI-Y7tzKx8yKO-68" connectable="0" vertex="1">
          <mxGeometry relative="1" as="geometry" />
        </mxCell>
        <mxCell id="PWmW-OovI-Y7tzKx8yKO-70" value="" style="endArrow=classic;html=1;rounded=0;entryX=1;entryY=0;entryDx=0;entryDy=0;exitX=0;exitY=1;exitDx=0;exitDy=0;" parent="1" source="PWmW-OovI-Y7tzKx8yKO-67" target="PWmW-OovI-Y7tzKx8yKO-50" edge="1">
          <mxGeometry relative="1" as="geometry">
            <mxPoint x="410" y="1110" as="sourcePoint" />
            <mxPoint x="490" y="1110" as="targetPoint" />
          </mxGeometry>
        </mxCell>
        <mxCell id="PWmW-OovI-Y7tzKx8yKO-71" value="a2" style="edgeLabel;resizable=0;html=1;;align=center;verticalAlign=middle;" parent="PWmW-OovI-Y7tzKx8yKO-70" connectable="0" vertex="1">
          <mxGeometry relative="1" as="geometry" />
        </mxCell>
        <mxCell id="PWmW-OovI-Y7tzKx8yKO-72" value="P7" style="ellipse;whiteSpace=wrap;html=1;" parent="1" vertex="1">
          <mxGeometry x="678.5" y="640" width="40" height="40" as="geometry" />
        </mxCell>
        <mxCell id="PWmW-OovI-Y7tzKx8yKO-73" value="" style="endArrow=classic;html=1;rounded=0;entryX=1;entryY=0;entryDx=0;entryDy=0;exitX=0;exitY=0.5;exitDx=0;exitDy=0;" parent="1" source="PWmW-OovI-Y7tzKx8yKO-72" target="PWmW-OovI-Y7tzKx8yKO-36" edge="1">
          <mxGeometry relative="1" as="geometry">
            <mxPoint x="674" y="659.71" as="sourcePoint" />
            <mxPoint x="275" y="659.71" as="targetPoint" />
            <Array as="points" />
          </mxGeometry>
        </mxCell>
        <mxCell id="PWmW-OovI-Y7tzKx8yKO-74" value="a1" style="edgeLabel;resizable=0;html=1;;align=center;verticalAlign=middle;" parent="PWmW-OovI-Y7tzKx8yKO-73" connectable="0" vertex="1">
          <mxGeometry relative="1" as="geometry" />
        </mxCell>
        <mxCell id="PWmW-OovI-Y7tzKx8yKO-75" value="" style="endArrow=classic;html=1;rounded=0;entryX=1;entryY=0;entryDx=0;entryDy=0;exitX=0;exitY=1;exitDx=0;exitDy=0;" parent="1" source="PWmW-OovI-Y7tzKx8yKO-72" target="PWmW-OovI-Y7tzKx8yKO-5" edge="1">
          <mxGeometry relative="1" as="geometry">
            <mxPoint x="704" y="748" as="sourcePoint" />
            <mxPoint x="414" y="840" as="targetPoint" />
            <Array as="points">
              <mxPoint x="560" y="800" />
            </Array>
          </mxGeometry>
        </mxCell>
        <mxCell id="PWmW-OovI-Y7tzKx8yKO-76" value="a2" style="edgeLabel;resizable=0;html=1;;align=center;verticalAlign=middle;" parent="PWmW-OovI-Y7tzKx8yKO-75" connectable="0" vertex="1">
          <mxGeometry relative="1" as="geometry" />
        </mxCell>
        <mxCell id="PWmW-OovI-Y7tzKx8yKO-77" value="" style="group" parent="1" vertex="1" connectable="0">
          <mxGeometry x="668" y="800" width="63" height="34" as="geometry" />
        </mxCell>
        <mxCell id="PWmW-OovI-Y7tzKx8yKO-78" value="" style="verticalLabelPosition=bottom;verticalAlign=top;html=1;shape=mxgraph.basic.acute_triangle;dx=0.5;" parent="PWmW-OovI-Y7tzKx8yKO-77" vertex="1">
          <mxGeometry x="11.5" width="40" height="30" as="geometry" />
        </mxCell>
        <mxCell id="PWmW-OovI-Y7tzKx8yKO-79" value="" style="group" parent="PWmW-OovI-Y7tzKx8yKO-77" vertex="1" connectable="0">
          <mxGeometry y="4" width="63" height="30" as="geometry" />
        </mxCell>
        <mxCell id="PWmW-OovI-Y7tzKx8yKO-80" value="\" style="text;html=1;align=center;verticalAlign=middle;whiteSpace=wrap;rounded=0;" parent="PWmW-OovI-Y7tzKx8yKO-79" vertex="1">
          <mxGeometry x="3" width="60" height="30" as="geometry" />
        </mxCell>
        <mxCell id="PWmW-OovI-Y7tzKx8yKO-81" value="/" style="text;html=1;align=center;verticalAlign=middle;whiteSpace=wrap;rounded=0;" parent="PWmW-OovI-Y7tzKx8yKO-79" vertex="1">
          <mxGeometry width="60" height="30" as="geometry" />
        </mxCell>
        <mxCell id="PWmW-OovI-Y7tzKx8yKO-82" value="OP" style="text;html=1;align=center;verticalAlign=middle;whiteSpace=wrap;rounded=0;" parent="1" vertex="1">
          <mxGeometry x="681.5" y="725" width="60" height="30" as="geometry" />
        </mxCell>
        <mxCell id="PWmW-OovI-Y7tzKx8yKO-83" value="" style="endArrow=classic;html=1;rounded=0;exitX=0.5;exitY=1;exitDx=0;exitDy=0;entryX=0;entryY=0;entryDx=20;entryDy=0;entryPerimeter=0;" parent="1" source="PWmW-OovI-Y7tzKx8yKO-72" target="PWmW-OovI-Y7tzKx8yKO-78" edge="1">
          <mxGeometry width="50" height="50" relative="1" as="geometry">
            <mxPoint x="640" y="800" as="sourcePoint" />
            <mxPoint x="690" y="750" as="targetPoint" />
          </mxGeometry>
        </mxCell>
        <mxCell id="PWmW-OovI-Y7tzKx8yKO-84" value="" style="endArrow=classic;html=1;rounded=0;exitX=0.5;exitY=0;exitDx=0;exitDy=0;" parent="1" source="PWmW-OovI-Y7tzKx8yKO-67" edge="1">
          <mxGeometry width="50" height="50" relative="1" as="geometry">
            <mxPoint x="470" y="810" as="sourcePoint" />
            <mxPoint x="700" y="830" as="targetPoint" />
          </mxGeometry>
        </mxCell>
        <mxCell id="PWmW-OovI-Y7tzKx8yKO-85" value="OP" style="text;html=1;align=center;verticalAlign=middle;whiteSpace=wrap;rounded=0;" parent="1" vertex="1">
          <mxGeometry x="681.5" y="880" width="60" height="30" as="geometry" />
        </mxCell>
        <mxCell id="PWmW-OovI-Y7tzKx8yKO-86" value="НаходитсяВ" style="rounded=0;whiteSpace=wrap;html=1;" parent="1" vertex="1">
          <mxGeometry x="20" y="1160" width="80" height="40" as="geometry" />
        </mxCell>
        <mxCell id="PWmW-OovI-Y7tzKx8yKO-87" value="" style="endArrow=classic;html=1;rounded=0;exitX=0.5;exitY=1;exitDx=0;exitDy=0;entryX=0.5;entryY=0;entryDx=0;entryDy=0;" parent="1" source="PWmW-OovI-Y7tzKx8yKO-61" target="PWmW-OovI-Y7tzKx8yKO-86" edge="1">
          <mxGeometry width="50" height="50" relative="1" as="geometry">
            <mxPoint x="58" y="1240" as="sourcePoint" />
            <mxPoint x="60" y="1160" as="targetPoint" />
          </mxGeometry>
        </mxCell>
        <mxCell id="PWmW-OovI-Y7tzKx8yKO-88" value="&lt;font style=&quot;font-size: 8px;&quot;&gt;PRED&lt;/font&gt;" style="text;html=1;align=center;verticalAlign=middle;whiteSpace=wrap;rounded=0;" parent="1" vertex="1">
          <mxGeometry x="44" y="1120" width="60" height="30" as="geometry" />
        </mxCell>
        <mxCell id="UkgyCMBPWVlgfMoJ2rd4-1" value="Пользователь&lt;br&gt;№ 1" style="ellipse;whiteSpace=wrap;html=1;" vertex="1" parent="1">
          <mxGeometry x="40" y="120" width="80" height="40" as="geometry" />
        </mxCell>
        <mxCell id="UkgyCMBPWVlgfMoJ2rd4-2" value="" style="endArrow=classic;html=1;rounded=0;entryX=1;entryY=0.5;entryDx=0;entryDy=0;exitX=0;exitY=0.5;exitDx=0;exitDy=0;" edge="1" parent="1" source="UkgyCMBPWVlgfMoJ2rd4-4" target="UkgyCMBPWVlgfMoJ2rd4-1">
          <mxGeometry relative="1" as="geometry">
            <mxPoint x="100" y="180" as="sourcePoint" />
            <mxPoint x="200" y="180" as="targetPoint" />
          </mxGeometry>
        </mxCell>
        <mxCell id="UkgyCMBPWVlgfMoJ2rd4-3" value="i" style="edgeLabel;resizable=0;html=1;;align=center;verticalAlign=middle;" connectable="0" vertex="1" parent="UkgyCMBPWVlgfMoJ2rd4-2">
          <mxGeometry relative="1" as="geometry" />
        </mxCell>
        <mxCell id="UkgyCMBPWVlgfMoJ2rd4-4" value="t" style="ellipse;whiteSpace=wrap;html=1;align=center;dashed=1;" vertex="1" parent="1">
          <mxGeometry x="160" y="120" width="40" height="40" as="geometry" />
        </mxCell>
        <mxCell id="UkgyCMBPWVlgfMoJ2rd4-5" value="P1" style="ellipse;whiteSpace=wrap;html=1;" vertex="1" parent="1">
          <mxGeometry x="280" y="120" width="40" height="40" as="geometry" />
        </mxCell>
        <mxCell id="UkgyCMBPWVlgfMoJ2rd4-6" value="Является" style="rounded=0;whiteSpace=wrap;html=1;" vertex="1" parent="1">
          <mxGeometry x="260" y="200" width="80" height="40" as="geometry" />
        </mxCell>
        <mxCell id="UkgyCMBPWVlgfMoJ2rd4-7" value="" style="endArrow=classic;html=1;rounded=0;" edge="1" parent="1">
          <mxGeometry width="50" height="50" relative="1" as="geometry">
            <mxPoint x="300" y="160" as="sourcePoint" />
            <mxPoint x="300" y="200" as="targetPoint" />
          </mxGeometry>
        </mxCell>
        <mxCell id="UkgyCMBPWVlgfMoJ2rd4-8" value="&lt;font style=&quot;font-size: 8px;&quot;&gt;PRED&lt;/font&gt;" style="text;html=1;align=center;verticalAlign=middle;whiteSpace=wrap;rounded=0;" vertex="1" parent="1">
          <mxGeometry x="284" y="161" width="60" height="30" as="geometry" />
        </mxCell>
        <mxCell id="UkgyCMBPWVlgfMoJ2rd4-9" value="Участником чата" style="ellipse;whiteSpace=wrap;html=1;" vertex="1" parent="1">
          <mxGeometry x="382" y="40" width="80" height="40" as="geometry" />
        </mxCell>
        <mxCell id="UkgyCMBPWVlgfMoJ2rd4-10" value="" style="endArrow=classic;html=1;rounded=0;exitX=0.5;exitY=0;exitDx=0;exitDy=0;entryX=0.5;entryY=1;entryDx=0;entryDy=0;" edge="1" parent="1" source="UkgyCMBPWVlgfMoJ2rd4-12" target="UkgyCMBPWVlgfMoJ2rd4-9">
          <mxGeometry relative="1" as="geometry">
            <mxPoint x="578.5" y="190" as="sourcePoint" />
            <mxPoint x="510" y="140" as="targetPoint" />
          </mxGeometry>
        </mxCell>
        <mxCell id="UkgyCMBPWVlgfMoJ2rd4-11" value="i" style="edgeLabel;resizable=0;html=1;;align=center;verticalAlign=middle;" connectable="0" vertex="1" parent="UkgyCMBPWVlgfMoJ2rd4-10">
          <mxGeometry relative="1" as="geometry" />
        </mxCell>
        <mxCell id="UkgyCMBPWVlgfMoJ2rd4-12" value="z" style="ellipse;whiteSpace=wrap;html=1;align=center;dashed=1;" vertex="1" parent="1">
          <mxGeometry x="400" y="120" width="40" height="40" as="geometry" />
        </mxCell>
        <mxCell id="UkgyCMBPWVlgfMoJ2rd4-13" value="" style="endArrow=classic;html=1;rounded=0;entryX=1;entryY=0.5;entryDx=0;entryDy=0;exitX=0;exitY=0.5;exitDx=0;exitDy=0;" edge="1" parent="1" source="UkgyCMBPWVlgfMoJ2rd4-5">
          <mxGeometry relative="1" as="geometry">
            <mxPoint x="235" y="100" as="sourcePoint" />
            <mxPoint x="200" y="140" as="targetPoint" />
            <Array as="points" />
          </mxGeometry>
        </mxCell>
        <mxCell id="UkgyCMBPWVlgfMoJ2rd4-14" value="a1" style="edgeLabel;resizable=0;html=1;;align=center;verticalAlign=middle;" connectable="0" vertex="1" parent="UkgyCMBPWVlgfMoJ2rd4-13">
          <mxGeometry relative="1" as="geometry" />
        </mxCell>
        <mxCell id="UkgyCMBPWVlgfMoJ2rd4-15" value="" style="endArrow=classic;html=1;rounded=0;entryX=0;entryY=0.5;entryDx=0;entryDy=0;exitX=1;exitY=0.5;exitDx=0;exitDy=0;" edge="1" parent="1" source="UkgyCMBPWVlgfMoJ2rd4-5" target="UkgyCMBPWVlgfMoJ2rd4-12">
          <mxGeometry relative="1" as="geometry">
            <mxPoint x="320" y="160" as="sourcePoint" />
            <mxPoint x="400" y="160" as="targetPoint" />
          </mxGeometry>
        </mxCell>
        <mxCell id="UkgyCMBPWVlgfMoJ2rd4-16" value="a2" style="edgeLabel;resizable=0;html=1;;align=center;verticalAlign=middle;" connectable="0" vertex="1" parent="UkgyCMBPWVlgfMoJ2rd4-15">
          <mxGeometry relative="1" as="geometry" />
        </mxCell>
        <mxCell id="UkgyCMBPWVlgfMoJ2rd4-17" value="P2" style="ellipse;whiteSpace=wrap;html=1;" vertex="1" parent="1">
          <mxGeometry x="160" y="240" width="40" height="40" as="geometry" />
        </mxCell>
        <mxCell id="UkgyCMBPWVlgfMoJ2rd4-18" value="ИмеетРоль" style="rounded=0;whiteSpace=wrap;html=1;" vertex="1" parent="1">
          <mxGeometry x="40" y="240" width="80" height="40" as="geometry" />
        </mxCell>
        <mxCell id="UkgyCMBPWVlgfMoJ2rd4-19" value="" style="endArrow=classic;html=1;rounded=0;exitX=0;exitY=0.5;exitDx=0;exitDy=0;entryX=1;entryY=0.5;entryDx=0;entryDy=0;" edge="1" parent="1" source="UkgyCMBPWVlgfMoJ2rd4-17" target="UkgyCMBPWVlgfMoJ2rd4-18">
          <mxGeometry width="50" height="50" relative="1" as="geometry">
            <mxPoint x="140" y="351" as="sourcePoint" />
            <mxPoint x="140" y="391" as="targetPoint" />
          </mxGeometry>
        </mxCell>
        <mxCell id="UkgyCMBPWVlgfMoJ2rd4-20" value="&lt;font style=&quot;font-size: 8px;&quot;&gt;PRED&lt;/font&gt;" style="text;html=1;align=center;verticalAlign=middle;whiteSpace=wrap;rounded=0;" vertex="1" parent="1">
          <mxGeometry x="113" y="237" width="60" height="30" as="geometry" />
        </mxCell>
        <mxCell id="UkgyCMBPWVlgfMoJ2rd4-21" value="" style="endArrow=classic;html=1;rounded=0;entryX=0.5;entryY=1;entryDx=0;entryDy=0;exitX=0.5;exitY=0;exitDx=0;exitDy=0;" edge="1" parent="1" source="UkgyCMBPWVlgfMoJ2rd4-17" target="UkgyCMBPWVlgfMoJ2rd4-4">
          <mxGeometry relative="1" as="geometry">
            <mxPoint x="253" y="299.58000000000004" as="sourcePoint" />
            <mxPoint x="173" y="299.58000000000004" as="targetPoint" />
            <Array as="points" />
          </mxGeometry>
        </mxCell>
        <mxCell id="UkgyCMBPWVlgfMoJ2rd4-22" value="a1" style="edgeLabel;resizable=0;html=1;;align=center;verticalAlign=middle;" connectable="0" vertex="1" parent="UkgyCMBPWVlgfMoJ2rd4-21">
          <mxGeometry relative="1" as="geometry" />
        </mxCell>
        <mxCell id="UkgyCMBPWVlgfMoJ2rd4-23" value="Владелец&lt;br&gt;чата" style="ellipse;whiteSpace=wrap;html=1;" vertex="1" parent="1">
          <mxGeometry x="60" y="400" width="80" height="40" as="geometry" />
        </mxCell>
        <mxCell id="UkgyCMBPWVlgfMoJ2rd4-24" value="" style="endArrow=classic;html=1;rounded=0;exitX=0.5;exitY=1;exitDx=0;exitDy=0;entryX=0.5;entryY=0;entryDx=0;entryDy=0;" edge="1" parent="1" source="UkgyCMBPWVlgfMoJ2rd4-26" target="UkgyCMBPWVlgfMoJ2rd4-23">
          <mxGeometry relative="1" as="geometry">
            <mxPoint x="501" y="430" as="sourcePoint" />
            <mxPoint x="241" y="380" as="targetPoint" />
          </mxGeometry>
        </mxCell>
        <mxCell id="UkgyCMBPWVlgfMoJ2rd4-25" value="i" style="edgeLabel;resizable=0;html=1;;align=center;verticalAlign=middle;" connectable="0" vertex="1" parent="UkgyCMBPWVlgfMoJ2rd4-24">
          <mxGeometry relative="1" as="geometry" />
        </mxCell>
        <mxCell id="UkgyCMBPWVlgfMoJ2rd4-26" value="v" style="ellipse;whiteSpace=wrap;html=1;align=center;dashed=1;" vertex="1" parent="1">
          <mxGeometry x="80" y="320" width="40" height="40" as="geometry" />
        </mxCell>
        <mxCell id="UkgyCMBPWVlgfMoJ2rd4-27" value="" style="endArrow=classic;html=1;rounded=0;entryX=0.5;entryY=0;entryDx=0;entryDy=0;exitX=0;exitY=1;exitDx=0;exitDy=0;" edge="1" parent="1" source="UkgyCMBPWVlgfMoJ2rd4-17" target="UkgyCMBPWVlgfMoJ2rd4-26">
          <mxGeometry relative="1" as="geometry">
            <mxPoint x="190" y="290" as="sourcePoint" />
            <mxPoint x="410" y="280" as="targetPoint" />
          </mxGeometry>
        </mxCell>
        <mxCell id="UkgyCMBPWVlgfMoJ2rd4-28" value="a2" style="edgeLabel;resizable=0;html=1;;align=center;verticalAlign=middle;" connectable="0" vertex="1" parent="UkgyCMBPWVlgfMoJ2rd4-27">
          <mxGeometry relative="1" as="geometry" />
        </mxCell>
        <mxCell id="UkgyCMBPWVlgfMoJ2rd4-29" value="P3" style="ellipse;whiteSpace=wrap;html=1;" vertex="1" parent="1">
          <mxGeometry x="280" y="-40" width="40" height="40" as="geometry" />
        </mxCell>
        <mxCell id="UkgyCMBPWVlgfMoJ2rd4-30" value="СостоитВ" style="rounded=0;whiteSpace=wrap;html=1;" vertex="1" parent="1">
          <mxGeometry x="260" y="40" width="80" height="40" as="geometry" />
        </mxCell>
        <mxCell id="UkgyCMBPWVlgfMoJ2rd4-31" value="" style="endArrow=classic;html=1;rounded=0;" edge="1" parent="1">
          <mxGeometry width="50" height="50" relative="1" as="geometry">
            <mxPoint x="300" as="sourcePoint" />
            <mxPoint x="300" y="40" as="targetPoint" />
          </mxGeometry>
        </mxCell>
        <mxCell id="UkgyCMBPWVlgfMoJ2rd4-32" value="&lt;font style=&quot;font-size: 8px;&quot;&gt;PRED&lt;/font&gt;" style="text;html=1;align=center;verticalAlign=middle;whiteSpace=wrap;rounded=0;" vertex="1" parent="1">
          <mxGeometry x="284" y="1" width="60" height="30" as="geometry" />
        </mxCell>
        <mxCell id="UkgyCMBPWVlgfMoJ2rd4-33" value="Чат" style="ellipse;whiteSpace=wrap;html=1;" vertex="1" parent="1">
          <mxGeometry x="483" y="-39" width="80" height="40" as="geometry" />
        </mxCell>
        <mxCell id="UkgyCMBPWVlgfMoJ2rd4-34" value="" style="endArrow=classic;html=1;rounded=0;exitX=1;exitY=0.5;exitDx=0;exitDy=0;" edge="1" parent="1" source="UkgyCMBPWVlgfMoJ2rd4-36">
          <mxGeometry relative="1" as="geometry">
            <mxPoint x="743" y="31" as="sourcePoint" />
            <mxPoint x="483" y="-19" as="targetPoint" />
          </mxGeometry>
        </mxCell>
        <mxCell id="UkgyCMBPWVlgfMoJ2rd4-35" value="i" style="edgeLabel;resizable=0;html=1;;align=center;verticalAlign=middle;" connectable="0" vertex="1" parent="UkgyCMBPWVlgfMoJ2rd4-34">
          <mxGeometry relative="1" as="geometry" />
        </mxCell>
        <mxCell id="UkgyCMBPWVlgfMoJ2rd4-36" value="x" style="ellipse;whiteSpace=wrap;html=1;align=center;dashed=1;" vertex="1" parent="1">
          <mxGeometry x="402" y="-39" width="40" height="40" as="geometry" />
        </mxCell>
        <mxCell id="UkgyCMBPWVlgfMoJ2rd4-37" value="" style="endArrow=classic;html=1;rounded=0;entryX=0;entryY=0.5;entryDx=0;entryDy=0;exitX=1;exitY=0.5;exitDx=0;exitDy=0;" edge="1" parent="1" source="UkgyCMBPWVlgfMoJ2rd4-29" target="UkgyCMBPWVlgfMoJ2rd4-36">
          <mxGeometry relative="1" as="geometry">
            <mxPoint x="332" y="-40" as="sourcePoint" />
            <mxPoint x="412" y="-40" as="targetPoint" />
          </mxGeometry>
        </mxCell>
        <mxCell id="UkgyCMBPWVlgfMoJ2rd4-38" value="a2" style="edgeLabel;resizable=0;html=1;;align=center;verticalAlign=middle;" connectable="0" vertex="1" parent="UkgyCMBPWVlgfMoJ2rd4-37">
          <mxGeometry relative="1" as="geometry" />
        </mxCell>
        <mxCell id="UkgyCMBPWVlgfMoJ2rd4-39" value="" style="endArrow=classic;html=1;rounded=0;entryX=0.5;entryY=0;entryDx=0;entryDy=0;exitX=0;exitY=0.5;exitDx=0;exitDy=0;" edge="1" parent="1" source="UkgyCMBPWVlgfMoJ2rd4-29" target="UkgyCMBPWVlgfMoJ2rd4-4">
          <mxGeometry relative="1" as="geometry">
            <mxPoint x="253" y="-20.419999999999987" as="sourcePoint" />
            <mxPoint x="173" y="-20.419999999999987" as="targetPoint" />
            <Array as="points">
              <mxPoint x="180" y="-20" />
            </Array>
          </mxGeometry>
        </mxCell>
        <mxCell id="UkgyCMBPWVlgfMoJ2rd4-40" value="a1" style="edgeLabel;resizable=0;html=1;;align=center;verticalAlign=middle;" connectable="0" vertex="1" parent="UkgyCMBPWVlgfMoJ2rd4-39">
          <mxGeometry relative="1" as="geometry" />
        </mxCell>
        <mxCell id="UkgyCMBPWVlgfMoJ2rd4-41" value="Пользователь&lt;br&gt;№ 2" style="ellipse;whiteSpace=wrap;html=1;" vertex="1" parent="1">
          <mxGeometry x="619" y="121" width="80" height="40" as="geometry" />
        </mxCell>
        <mxCell id="UkgyCMBPWVlgfMoJ2rd4-42" value="" style="endArrow=classic;html=1;rounded=0;entryX=0;entryY=0.5;entryDx=0;entryDy=0;exitX=1;exitY=0.5;exitDx=0;exitDy=0;" edge="1" parent="1" source="UkgyCMBPWVlgfMoJ2rd4-44" target="UkgyCMBPWVlgfMoJ2rd4-41">
          <mxGeometry relative="1" as="geometry">
            <mxPoint x="630" y="181" as="sourcePoint" />
            <mxPoint x="730" y="181" as="targetPoint" />
          </mxGeometry>
        </mxCell>
        <mxCell id="UkgyCMBPWVlgfMoJ2rd4-43" value="i" style="edgeLabel;resizable=0;html=1;;align=center;verticalAlign=middle;" connectable="0" vertex="1" parent="UkgyCMBPWVlgfMoJ2rd4-42">
          <mxGeometry relative="1" as="geometry" />
        </mxCell>
        <mxCell id="UkgyCMBPWVlgfMoJ2rd4-44" value="q" style="ellipse;whiteSpace=wrap;html=1;align=center;dashed=1;" vertex="1" parent="1">
          <mxGeometry x="520" y="120" width="40" height="40" as="geometry" />
        </mxCell>
        <mxCell id="UkgyCMBPWVlgfMoJ2rd4-45" value="" style="endArrow=classic;html=1;rounded=0;entryX=0;entryY=0.5;entryDx=0;entryDy=0;exitX=1;exitY=1;exitDx=0;exitDy=0;" edge="1" parent="1" source="UkgyCMBPWVlgfMoJ2rd4-5" target="UkgyCMBPWVlgfMoJ2rd4-44">
          <mxGeometry relative="1" as="geometry">
            <mxPoint x="291.0721356237306" y="155.1421356237306" as="sourcePoint" />
            <mxPoint x="496.93" y="141" as="targetPoint" />
            <Array as="points">
              <mxPoint x="346.93" y="191" />
              <mxPoint x="456.93" y="191" />
              <mxPoint x="456.93" y="141" />
            </Array>
          </mxGeometry>
        </mxCell>
        <mxCell id="UkgyCMBPWVlgfMoJ2rd4-46" value="a1" style="edgeLabel;resizable=0;html=1;;align=center;verticalAlign=middle;" connectable="0" vertex="1" parent="UkgyCMBPWVlgfMoJ2rd4-45">
          <mxGeometry relative="1" as="geometry" />
        </mxCell>
        <mxCell id="UkgyCMBPWVlgfMoJ2rd4-51" value="" style="endArrow=classic;html=1;rounded=0;entryX=0.5;entryY=1;entryDx=0;entryDy=0;exitX=1;exitY=0.5;exitDx=0;exitDy=0;" edge="1" parent="1" source="UkgyCMBPWVlgfMoJ2rd4-17" target="UkgyCMBPWVlgfMoJ2rd4-44">
          <mxGeometry relative="1" as="geometry">
            <mxPoint x="560" y="240" as="sourcePoint" />
            <mxPoint x="480" y="240" as="targetPoint" />
            <Array as="points">
              <mxPoint x="410" y="260" />
              <mxPoint x="540" y="260" />
            </Array>
          </mxGeometry>
        </mxCell>
        <mxCell id="UkgyCMBPWVlgfMoJ2rd4-52" value="a1" style="edgeLabel;resizable=0;html=1;;align=center;verticalAlign=middle;" connectable="0" vertex="1" parent="UkgyCMBPWVlgfMoJ2rd4-51">
          <mxGeometry relative="1" as="geometry" />
        </mxCell>
        <mxCell id="UkgyCMBPWVlgfMoJ2rd4-53" value="Член&lt;br&gt;Чата" style="ellipse;whiteSpace=wrap;html=1;" vertex="1" parent="1">
          <mxGeometry x="220" y="400" width="80" height="40" as="geometry" />
        </mxCell>
        <mxCell id="UkgyCMBPWVlgfMoJ2rd4-54" value="" style="endArrow=classic;html=1;rounded=0;exitX=0.5;exitY=1;exitDx=0;exitDy=0;entryX=0.5;entryY=0;entryDx=0;entryDy=0;" edge="1" parent="1" source="UkgyCMBPWVlgfMoJ2rd4-56" target="UkgyCMBPWVlgfMoJ2rd4-53">
          <mxGeometry relative="1" as="geometry">
            <mxPoint x="661" y="430" as="sourcePoint" />
            <mxPoint x="401" y="380" as="targetPoint" />
          </mxGeometry>
        </mxCell>
        <mxCell id="UkgyCMBPWVlgfMoJ2rd4-55" value="i" style="edgeLabel;resizable=0;html=1;;align=center;verticalAlign=middle;" connectable="0" vertex="1" parent="UkgyCMBPWVlgfMoJ2rd4-54">
          <mxGeometry relative="1" as="geometry" />
        </mxCell>
        <mxCell id="UkgyCMBPWVlgfMoJ2rd4-56" value="w" style="ellipse;whiteSpace=wrap;html=1;align=center;dashed=1;" vertex="1" parent="1">
          <mxGeometry x="240" y="320" width="40" height="40" as="geometry" />
        </mxCell>
        <mxCell id="UkgyCMBPWVlgfMoJ2rd4-57" value="" style="endArrow=classic;html=1;rounded=0;entryX=0.5;entryY=0;entryDx=0;entryDy=0;exitX=1;exitY=1;exitDx=0;exitDy=0;" edge="1" parent="1" target="UkgyCMBPWVlgfMoJ2rd4-56" source="UkgyCMBPWVlgfMoJ2rd4-17">
          <mxGeometry relative="1" as="geometry">
            <mxPoint x="326" y="274" as="sourcePoint" />
            <mxPoint x="570" y="280" as="targetPoint" />
          </mxGeometry>
        </mxCell>
        <mxCell id="UkgyCMBPWVlgfMoJ2rd4-58" value="a2" style="edgeLabel;resizable=0;html=1;;align=center;verticalAlign=middle;" connectable="0" vertex="1" parent="UkgyCMBPWVlgfMoJ2rd4-57">
          <mxGeometry relative="1" as="geometry" />
        </mxCell>
        <mxCell id="UkgyCMBPWVlgfMoJ2rd4-59" value="P4" style="ellipse;whiteSpace=wrap;html=1;" vertex="1" parent="1">
          <mxGeometry x="600" y="40" width="40" height="40" as="geometry" />
        </mxCell>
        <mxCell id="UkgyCMBPWVlgfMoJ2rd4-60" value="" style="endArrow=classic;html=1;rounded=0;entryX=0;entryY=0.5;entryDx=0;entryDy=0;exitX=1;exitY=0.5;exitDx=0;exitDy=0;" edge="1" parent="1" source="UkgyCMBPWVlgfMoJ2rd4-59" target="UkgyCMBPWVlgfMoJ2rd4-62">
          <mxGeometry width="50" height="50" relative="1" as="geometry">
            <mxPoint x="590" y="-110" as="sourcePoint" />
            <mxPoint x="687" y="-168" as="targetPoint" />
          </mxGeometry>
        </mxCell>
        <mxCell id="UkgyCMBPWVlgfMoJ2rd4-61" value="&lt;font style=&quot;font-size: 8px;&quot;&gt;PRED&lt;/font&gt;" style="text;html=1;align=center;verticalAlign=middle;whiteSpace=wrap;rounded=0;" vertex="1" parent="1">
          <mxGeometry x="629" y="37" width="60" height="30" as="geometry" />
        </mxCell>
        <mxCell id="UkgyCMBPWVlgfMoJ2rd4-62" value="Отправляет" style="rounded=0;whiteSpace=wrap;html=1;" vertex="1" parent="1">
          <mxGeometry x="681.5" y="40" width="80" height="40" as="geometry" />
        </mxCell>
        <mxCell id="UkgyCMBPWVlgfMoJ2rd4-63" value="Сообщение" style="ellipse;whiteSpace=wrap;html=1;" vertex="1" parent="1">
          <mxGeometry x="681.5" y="-39" width="80" height="40" as="geometry" />
        </mxCell>
        <mxCell id="UkgyCMBPWVlgfMoJ2rd4-64" value="" style="endArrow=classic;html=1;rounded=0;entryX=0;entryY=0.5;entryDx=0;entryDy=0;exitX=1;exitY=0.5;exitDx=0;exitDy=0;" edge="1" parent="1" source="UkgyCMBPWVlgfMoJ2rd4-66" target="UkgyCMBPWVlgfMoJ2rd4-63">
          <mxGeometry relative="1" as="geometry">
            <mxPoint x="540" y="21" as="sourcePoint" />
            <mxPoint x="520" y="-19" as="targetPoint" />
          </mxGeometry>
        </mxCell>
        <mxCell id="UkgyCMBPWVlgfMoJ2rd4-65" value="i" style="edgeLabel;resizable=0;html=1;;align=center;verticalAlign=middle;" connectable="0" vertex="1" parent="UkgyCMBPWVlgfMoJ2rd4-64">
          <mxGeometry relative="1" as="geometry" />
        </mxCell>
        <mxCell id="UkgyCMBPWVlgfMoJ2rd4-66" value="y" style="ellipse;whiteSpace=wrap;html=1;align=center;dashed=1;" vertex="1" parent="1">
          <mxGeometry x="600" y="-39" width="40" height="40" as="geometry" />
        </mxCell>
        <mxCell id="UkgyCMBPWVlgfMoJ2rd4-67" value="" style="endArrow=classic;html=1;rounded=0;entryX=0.5;entryY=1;entryDx=0;entryDy=0;exitX=0.5;exitY=0;exitDx=0;exitDy=0;" edge="1" parent="1" source="UkgyCMBPWVlgfMoJ2rd4-59" target="UkgyCMBPWVlgfMoJ2rd4-66">
          <mxGeometry relative="1" as="geometry">
            <mxPoint x="694.5" y="329" as="sourcePoint" />
            <mxPoint x="741.5" y="191" as="targetPoint" />
          </mxGeometry>
        </mxCell>
        <mxCell id="UkgyCMBPWVlgfMoJ2rd4-68" value="a2" style="edgeLabel;resizable=0;html=1;;align=center;verticalAlign=middle;" connectable="0" vertex="1" parent="UkgyCMBPWVlgfMoJ2rd4-67">
          <mxGeometry relative="1" as="geometry" />
        </mxCell>
        <mxCell id="UkgyCMBPWVlgfMoJ2rd4-70" value="" style="endArrow=classic;html=1;rounded=0;entryX=0.5;entryY=0;entryDx=0;entryDy=0;exitX=0;exitY=0.5;exitDx=0;exitDy=0;" edge="1" parent="1" source="UkgyCMBPWVlgfMoJ2rd4-59" target="UkgyCMBPWVlgfMoJ2rd4-44">
          <mxGeometry relative="1" as="geometry">
            <mxPoint x="580" y="67" as="sourcePoint" />
            <mxPoint x="500" y="67" as="targetPoint" />
            <Array as="points">
              <mxPoint x="540" y="60" />
            </Array>
          </mxGeometry>
        </mxCell>
        <mxCell id="UkgyCMBPWVlgfMoJ2rd4-71" value="a1" style="edgeLabel;resizable=0;html=1;;align=center;verticalAlign=middle;" connectable="0" vertex="1" parent="UkgyCMBPWVlgfMoJ2rd4-70">
          <mxGeometry relative="1" as="geometry" />
        </mxCell>
        <mxCell id="UkgyCMBPWVlgfMoJ2rd4-72" value="P5" style="ellipse;whiteSpace=wrap;html=1;" vertex="1" parent="1">
          <mxGeometry x="494" y="-120" width="40" height="40" as="geometry" />
        </mxCell>
        <mxCell id="UkgyCMBPWVlgfMoJ2rd4-73" value="" style="endArrow=classic;html=1;rounded=0;entryX=1;entryY=0.5;entryDx=0;entryDy=0;exitX=0;exitY=0.5;exitDx=0;exitDy=0;" edge="1" parent="1" source="UkgyCMBPWVlgfMoJ2rd4-72" target="UkgyCMBPWVlgfMoJ2rd4-75">
          <mxGeometry width="50" height="50" relative="1" as="geometry">
            <mxPoint x="564" y="-267" as="sourcePoint" />
            <mxPoint x="661" y="-325" as="targetPoint" />
          </mxGeometry>
        </mxCell>
        <mxCell id="UkgyCMBPWVlgfMoJ2rd4-74" value="&lt;font style=&quot;font-size: 8px;&quot;&gt;PRED&lt;/font&gt;" style="text;html=1;align=center;verticalAlign=middle;whiteSpace=wrap;rounded=0;" vertex="1" parent="1">
          <mxGeometry x="444" y="-123" width="60" height="30" as="geometry" />
        </mxCell>
        <mxCell id="UkgyCMBPWVlgfMoJ2rd4-75" value="ОпубликованоВ" style="rounded=0;whiteSpace=wrap;html=1;" vertex="1" parent="1">
          <mxGeometry x="364" y="-120" width="89" height="40" as="geometry" />
        </mxCell>
        <mxCell id="UkgyCMBPWVlgfMoJ2rd4-76" value="" style="endArrow=classic;html=1;rounded=0;entryX=0;entryY=0;entryDx=0;entryDy=0;exitX=1;exitY=1;exitDx=0;exitDy=0;" edge="1" parent="1" source="UkgyCMBPWVlgfMoJ2rd4-72" target="UkgyCMBPWVlgfMoJ2rd4-66">
          <mxGeometry relative="1" as="geometry">
            <mxPoint x="681.5" y="-100.28999999999999" as="sourcePoint" />
            <mxPoint x="601.5" y="-100.28999999999999" as="targetPoint" />
            <Array as="points" />
          </mxGeometry>
        </mxCell>
        <mxCell id="UkgyCMBPWVlgfMoJ2rd4-77" value="a1" style="edgeLabel;resizable=0;html=1;;align=center;verticalAlign=middle;" connectable="0" vertex="1" parent="UkgyCMBPWVlgfMoJ2rd4-76">
          <mxGeometry relative="1" as="geometry" />
        </mxCell>
        <mxCell id="UkgyCMBPWVlgfMoJ2rd4-78" value="" style="endArrow=classic;html=1;rounded=0;entryX=1;entryY=0;entryDx=0;entryDy=0;exitX=0;exitY=1;exitDx=0;exitDy=0;" edge="1" parent="1" source="UkgyCMBPWVlgfMoJ2rd4-72" target="UkgyCMBPWVlgfMoJ2rd4-36">
          <mxGeometry relative="1" as="geometry">
            <mxPoint x="320" y="-50" as="sourcePoint" />
            <mxPoint x="400" y="-50" as="targetPoint" />
          </mxGeometry>
        </mxCell>
        <mxCell id="UkgyCMBPWVlgfMoJ2rd4-79" value="a2" style="edgeLabel;resizable=0;html=1;;align=center;verticalAlign=middle;" connectable="0" vertex="1" parent="UkgyCMBPWVlgfMoJ2rd4-78">
          <mxGeometry relative="1" as="geometry" />
        </mxCell>
        <mxCell id="UkgyCMBPWVlgfMoJ2rd4-80" value="P6" style="ellipse;whiteSpace=wrap;html=1;" vertex="1" parent="1">
          <mxGeometry x="600" y="-120" width="40" height="40" as="geometry" />
        </mxCell>
        <mxCell id="UkgyCMBPWVlgfMoJ2rd4-81" value="Содержит" style="rounded=0;whiteSpace=wrap;html=1;" vertex="1" parent="1">
          <mxGeometry x="681.5" y="-120" width="89" height="40" as="geometry" />
        </mxCell>
        <mxCell id="UkgyCMBPWVlgfMoJ2rd4-82" value="Файл" style="ellipse;whiteSpace=wrap;html=1;" vertex="1" parent="1">
          <mxGeometry x="681.5" y="-200" width="80" height="40" as="geometry" />
        </mxCell>
        <mxCell id="UkgyCMBPWVlgfMoJ2rd4-83" value="" style="endArrow=classic;html=1;rounded=0;exitX=1;exitY=0.5;exitDx=0;exitDy=0;" edge="1" parent="1" source="UkgyCMBPWVlgfMoJ2rd4-85">
          <mxGeometry relative="1" as="geometry">
            <mxPoint x="941.5" y="-130" as="sourcePoint" />
            <mxPoint x="681.5" y="-180" as="targetPoint" />
          </mxGeometry>
        </mxCell>
        <mxCell id="UkgyCMBPWVlgfMoJ2rd4-84" value="i" style="edgeLabel;resizable=0;html=1;;align=center;verticalAlign=middle;" connectable="0" vertex="1" parent="UkgyCMBPWVlgfMoJ2rd4-83">
          <mxGeometry relative="1" as="geometry" />
        </mxCell>
        <mxCell id="UkgyCMBPWVlgfMoJ2rd4-85" value="k" style="ellipse;whiteSpace=wrap;html=1;align=center;dashed=1;" vertex="1" parent="1">
          <mxGeometry x="600.5" y="-200" width="40" height="40" as="geometry" />
        </mxCell>
        <mxCell id="UkgyCMBPWVlgfMoJ2rd4-86" value="" style="endArrow=classic;html=1;rounded=0;entryX=0.5;entryY=0;entryDx=0;entryDy=0;exitX=0.5;exitY=1;exitDx=0;exitDy=0;" edge="1" parent="1" source="UkgyCMBPWVlgfMoJ2rd4-80" target="UkgyCMBPWVlgfMoJ2rd4-66">
          <mxGeometry relative="1" as="geometry">
            <mxPoint x="538" y="-76" as="sourcePoint" />
            <mxPoint x="616" y="-23" as="targetPoint" />
            <Array as="points" />
          </mxGeometry>
        </mxCell>
        <mxCell id="UkgyCMBPWVlgfMoJ2rd4-87" value="a1" style="edgeLabel;resizable=0;html=1;;align=center;verticalAlign=middle;" connectable="0" vertex="1" parent="UkgyCMBPWVlgfMoJ2rd4-86">
          <mxGeometry relative="1" as="geometry" />
        </mxCell>
        <mxCell id="UkgyCMBPWVlgfMoJ2rd4-88" value="" style="endArrow=classic;html=1;rounded=0;entryX=0.5;entryY=1;entryDx=0;entryDy=0;exitX=0.5;exitY=0;exitDx=0;exitDy=0;" edge="1" parent="1" source="UkgyCMBPWVlgfMoJ2rd4-80" target="UkgyCMBPWVlgfMoJ2rd4-85">
          <mxGeometry relative="1" as="geometry">
            <mxPoint x="510" y="-76" as="sourcePoint" />
            <mxPoint x="446" y="-23" as="targetPoint" />
          </mxGeometry>
        </mxCell>
        <mxCell id="UkgyCMBPWVlgfMoJ2rd4-89" value="a2" style="edgeLabel;resizable=0;html=1;;align=center;verticalAlign=middle;" connectable="0" vertex="1" parent="UkgyCMBPWVlgfMoJ2rd4-88">
          <mxGeometry relative="1" as="geometry" />
        </mxCell>
        <mxCell id="UkgyCMBPWVlgfMoJ2rd4-90" value="&lt;font style=&quot;font-size: 8px;&quot;&gt;PRED&lt;/font&gt;" style="text;html=1;align=center;verticalAlign=middle;whiteSpace=wrap;rounded=0;" vertex="1" parent="1">
          <mxGeometry x="629" y="-123" width="60" height="30" as="geometry" />
        </mxCell>
        <mxCell id="UkgyCMBPWVlgfMoJ2rd4-91" value="" style="endArrow=classic;html=1;rounded=0;entryX=0;entryY=0.5;entryDx=0;entryDy=0;exitX=1;exitY=0.5;exitDx=0;exitDy=0;" edge="1" parent="1" source="UkgyCMBPWVlgfMoJ2rd4-80" target="UkgyCMBPWVlgfMoJ2rd4-81">
          <mxGeometry width="50" height="50" relative="1" as="geometry">
            <mxPoint x="480" y="-20" as="sourcePoint" />
            <mxPoint x="530" y="-70" as="targetPoint" />
          </mxGeometry>
        </mxCell>
        <mxCell id="UkgyCMBPWVlgfMoJ2rd4-92" value="Пользователь&lt;br&gt;№ 3" style="ellipse;whiteSpace=wrap;html=1;" vertex="1" parent="1">
          <mxGeometry x="40" y="-120" width="80" height="40" as="geometry" />
        </mxCell>
        <mxCell id="UkgyCMBPWVlgfMoJ2rd4-93" value="" style="endArrow=classic;html=1;rounded=0;entryX=1;entryY=0.5;entryDx=0;entryDy=0;exitX=0;exitY=0.5;exitDx=0;exitDy=0;" edge="1" parent="1" source="UkgyCMBPWVlgfMoJ2rd4-95" target="UkgyCMBPWVlgfMoJ2rd4-92">
          <mxGeometry relative="1" as="geometry">
            <mxPoint x="100" y="-60" as="sourcePoint" />
            <mxPoint x="200" y="-60" as="targetPoint" />
          </mxGeometry>
        </mxCell>
        <mxCell id="UkgyCMBPWVlgfMoJ2rd4-94" value="i" style="edgeLabel;resizable=0;html=1;;align=center;verticalAlign=middle;" connectable="0" vertex="1" parent="UkgyCMBPWVlgfMoJ2rd4-93">
          <mxGeometry relative="1" as="geometry" />
        </mxCell>
        <mxCell id="UkgyCMBPWVlgfMoJ2rd4-95" value="f" style="ellipse;whiteSpace=wrap;html=1;align=center;dashed=1;" vertex="1" parent="1">
          <mxGeometry x="160" y="-120" width="40" height="40" as="geometry" />
        </mxCell>
        <mxCell id="UkgyCMBPWVlgfMoJ2rd4-96" value="P7" style="ellipse;whiteSpace=wrap;html=1;" vertex="1" parent="1">
          <mxGeometry x="160" y="-200" width="40" height="40" as="geometry" />
        </mxCell>
        <mxCell id="UkgyCMBPWVlgfMoJ2rd4-97" value="Админстратор&lt;br&gt;системы" style="ellipse;whiteSpace=wrap;html=1;" vertex="1" parent="1">
          <mxGeometry x="441" y="-200" width="80" height="40" as="geometry" />
        </mxCell>
        <mxCell id="UkgyCMBPWVlgfMoJ2rd4-98" value="" style="endArrow=classic;html=1;rounded=0;exitX=1;exitY=0.5;exitDx=0;exitDy=0;" edge="1" parent="1" source="UkgyCMBPWVlgfMoJ2rd4-100">
          <mxGeometry relative="1" as="geometry">
            <mxPoint x="701" y="-130" as="sourcePoint" />
            <mxPoint x="441" y="-180" as="targetPoint" />
          </mxGeometry>
        </mxCell>
        <mxCell id="UkgyCMBPWVlgfMoJ2rd4-99" value="i" style="edgeLabel;resizable=0;html=1;;align=center;verticalAlign=middle;" connectable="0" vertex="1" parent="UkgyCMBPWVlgfMoJ2rd4-98">
          <mxGeometry relative="1" as="geometry" />
        </mxCell>
        <mxCell id="UkgyCMBPWVlgfMoJ2rd4-100" value="s" style="ellipse;whiteSpace=wrap;html=1;align=center;dashed=1;" vertex="1" parent="1">
          <mxGeometry x="360" y="-200" width="40" height="40" as="geometry" />
        </mxCell>
        <mxCell id="UkgyCMBPWVlgfMoJ2rd4-101" value="P8" style="ellipse;whiteSpace=wrap;html=1;" vertex="1" parent="1">
          <mxGeometry x="240" y="-120" width="40" height="40" as="geometry" />
        </mxCell>
        <mxCell id="UkgyCMBPWVlgfMoJ2rd4-102" value="ИмеетДоступК" style="rounded=0;whiteSpace=wrap;html=1;" vertex="1" parent="1">
          <mxGeometry x="40" y="-50" width="89" height="40" as="geometry" />
        </mxCell>
        <mxCell id="UkgyCMBPWVlgfMoJ2rd4-103" value="" style="endArrow=classic;html=1;rounded=0;entryX=1;entryY=0.5;entryDx=0;entryDy=0;exitX=0;exitY=1;exitDx=0;exitDy=0;" edge="1" parent="1" source="UkgyCMBPWVlgfMoJ2rd4-101" target="UkgyCMBPWVlgfMoJ2rd4-102">
          <mxGeometry width="50" height="50" relative="1" as="geometry">
            <mxPoint x="289" y="-83" as="sourcePoint" />
            <mxPoint x="339" y="-133" as="targetPoint" />
          </mxGeometry>
        </mxCell>
        <mxCell id="UkgyCMBPWVlgfMoJ2rd4-104" value="&lt;font style=&quot;font-size: 8px;&quot;&gt;PRED&lt;/font&gt;" style="text;html=1;align=center;verticalAlign=middle;whiteSpace=wrap;rounded=0;" vertex="1" parent="1">
          <mxGeometry x="170" y="-69" width="60" height="30" as="geometry" />
        </mxCell>
        <mxCell id="UkgyCMBPWVlgfMoJ2rd4-107" value="" style="endArrow=classic;html=1;rounded=0;entryX=0.5;entryY=0;entryDx=0;entryDy=0;exitX=0.5;exitY=1;exitDx=0;exitDy=0;" edge="1" parent="1">
          <mxGeometry relative="1" as="geometry">
            <mxPoint x="179.70999999999998" y="-160" as="sourcePoint" />
            <mxPoint x="179.70999999999998" y="-119" as="targetPoint" />
            <Array as="points" />
          </mxGeometry>
        </mxCell>
        <mxCell id="UkgyCMBPWVlgfMoJ2rd4-108" value="a1" style="edgeLabel;resizable=0;html=1;;align=center;verticalAlign=middle;" connectable="0" vertex="1" parent="UkgyCMBPWVlgfMoJ2rd4-107">
          <mxGeometry relative="1" as="geometry" />
        </mxCell>
        <mxCell id="UkgyCMBPWVlgfMoJ2rd4-109" value="" style="endArrow=classic;html=1;rounded=0;entryX=0;entryY=0.5;entryDx=0;entryDy=0;exitX=1;exitY=0.5;exitDx=0;exitDy=0;" edge="1" parent="1" source="UkgyCMBPWVlgfMoJ2rd4-96" target="UkgyCMBPWVlgfMoJ2rd4-100">
          <mxGeometry relative="1" as="geometry">
            <mxPoint x="270" y="-170" as="sourcePoint" />
            <mxPoint x="271" y="-210" as="targetPoint" />
          </mxGeometry>
        </mxCell>
        <mxCell id="UkgyCMBPWVlgfMoJ2rd4-110" value="a2" style="edgeLabel;resizable=0;html=1;;align=center;verticalAlign=middle;" connectable="0" vertex="1" parent="UkgyCMBPWVlgfMoJ2rd4-109">
          <mxGeometry relative="1" as="geometry" />
        </mxCell>
        <mxCell id="UkgyCMBPWVlgfMoJ2rd4-111" value="" style="endArrow=classic;html=1;rounded=0;exitX=1;exitY=0;exitDx=0;exitDy=0;entryX=0;entryY=1;entryDx=0;entryDy=0;" edge="1" parent="1" source="UkgyCMBPWVlgfMoJ2rd4-101" target="UkgyCMBPWVlgfMoJ2rd4-100">
          <mxGeometry relative="1" as="geometry">
            <mxPoint x="538" y="-76" as="sourcePoint" />
            <mxPoint x="300" y="-120" as="targetPoint" />
            <Array as="points" />
          </mxGeometry>
        </mxCell>
        <mxCell id="UkgyCMBPWVlgfMoJ2rd4-112" value="a1" style="edgeLabel;resizable=0;html=1;;align=center;verticalAlign=middle;" connectable="0" vertex="1" parent="UkgyCMBPWVlgfMoJ2rd4-111">
          <mxGeometry relative="1" as="geometry" />
        </mxCell>
        <mxCell id="UkgyCMBPWVlgfMoJ2rd4-113" value="" style="endArrow=classic;html=1;rounded=0;entryX=0;entryY=0;entryDx=0;entryDy=0;exitX=1;exitY=1;exitDx=0;exitDy=0;" edge="1" parent="1" source="UkgyCMBPWVlgfMoJ2rd4-101" target="UkgyCMBPWVlgfMoJ2rd4-36">
          <mxGeometry relative="1" as="geometry">
            <mxPoint x="510" y="-76" as="sourcePoint" />
            <mxPoint x="446" y="-23" as="targetPoint" />
          </mxGeometry>
        </mxCell>
        <mxCell id="UkgyCMBPWVlgfMoJ2rd4-114" value="a2" style="edgeLabel;resizable=0;html=1;;align=center;verticalAlign=middle;" connectable="0" vertex="1" parent="UkgyCMBPWVlgfMoJ2rd4-113">
          <mxGeometry relative="1" as="geometry" />
        </mxCell>
      </root>
    </mxGraphModel>
  </diagram>
</mxfile>
